<?xml version="1.0" encoding="UTF-8" standalone="no"?>
<svg id="svg4270" xmlns:rdf="http://www.w3.org/1999/02/22-rdf-syntax-ns#" xmlns="http://www.w3.org/2000/svg" height="1016" viewBox="0 0 973 1016" width="973" version="1.1" xmlns:cc="http://creativecommons.org/ns#" xmlns:dc="http://purl.org/dc/elements/1.1/">
<path id="path4280" d="m479.5 1010c-81.41-5.7-157.13-20.32-209-40.43-100.88-39.1-161.9-88.4-210.94-170.4-4.399-7.36-15.431-29.41-18.348-36.67-11.387-28.35-16.851-44.91-22.296-67.55-19.136-79.57-17.659-188.86 3.633-268.75 12.58-47.2 30.342-88.56 53.976-125.7 7.1472-11.231 22.339-32.09 28.612-39.285 3.685-4.227 3.7279-4.006-2.1364-11.024-2.75-3.2911-5-6.3924-5-6.8917 0-0.49929-1.2863-2.936-2.8584-5.415-14.006-22.08-17.018-63.36-6.523-89.38 22.59-56 79.92-94.849 185.88-125.97 94.69-27.808 156.47-2.501 179.88 73.684 0.54694 1.7799 61.567 2.6966 64.298 0.96595 0.59-0.374 3.67-5.405 6.84-11.18 41.87-76.201 120.6-100.61 207.98-64.478 38.844 16.061 79.011 44.598 97.683 69.398 1.8245 2.4233 5.0269 6.6951 7.1166 9.4928 26.005 34.816 29.384 76.732 9.4965 117.8l-5.1884 10.715 10.949 11.285c29.079 29.972 48.109 55.091 66.76 88.121 3.6758 6.5097 6.6833 11.976 6.6833 12.147 0 0.17129 2.517 5.6452 5.5934 12.164 11.179 23.689 18.882 46.155 24.433 71.259 1.6531 7.4765 3.4064 15.056 3.8961 16.844 0.48976 1.7875 0.65429 4.1531 0.36563 5.2569s-0.0365 3.2414 0.56045 4.75c4.3644 11.031 7.7738 95.573 5.212 129.24-2.57 33.778-6.3668 63.863-10.538 83.5-1.4019 6.6-2.9684 14.025-3.4812 16.5-1.3782 6.6516-7.8623 31.807-9.5371 37-12.317 38.188-24.81 67.719-39.132 92.5-1.2715 2.2-3.2156 5.6506-4.3203 7.668s-3.3682 5.6826-5.03 8.145-3.0215 4.7793-3.0215 5.1487c0 0.36943-1.2109 2.3292-2.6908 4.355-1.48 2.0258-4.3262 5.9333-6.3251 8.6833-12.472 17.159-16.228 22.023-23.917 30.972-47.96 55.82-113.1 96.74-185.58 116.58-4.4 1.2045-10.25 2.8184-13 3.5866-43.302 12.095-126.55 19.166-181 15.373zm89.5-28.05c63.844-5.3587 116.76-19.524 164.5-44.032 12.437-6.3853 16.044-8.4575 30.347-17.436 29.99-18.83 68.91-55.76 87.43-82.98 19.07-28.02 24.11-36.43 34.68-57.92 19.36-39.37 32.49-81.26 42.01-134.08 12.27-68.05 11.63-156.99-1.57-215.7-33.91-150.89-171.8-267.25-353.4-298.21-35.82-6.11-102.54-8.47-134.5-4.78-151.45 17.54-275.32 88.22-340.76 194.46-7.763 12.61-20.235 37.72-27.431 55.23-5.9148 14.395-17.669 51.468-18.925 59.693-0.36194 2.369-1.0913 5.1492-1.6209 6.1782-0.97346 1.8916-1.6709 5.4343-6.2265 31.629-11.912 68.493-9.1131 158.14 6.8452 219.27 3.8058 14.578 13.338 44.474 14.775 46.342 0.46945 0.60986 1.6906 3.5349 2.7138 6.5 1.7281 5.0082 12.997 28.573 16.924 35.391 0.95042 1.65 3.2771 5.7 5.1705 9 35.425 61.743 99.998 115.5 176.53 146.95 4.95 2.0345 10.125 4.1722 11.5 4.7504 31.203 13.12 102.97 30.265 147.5 35.238 2.75 0.3071 10.625 1.2086 17.5 2.0033 12.075 1.3959 36.98 3.234 53.5 3.9487 12.76 0.55207 59.92-0.38554 72.5-1.4414zm-97-43.558c-26.448-2.5017-38.083-4.196-65-9.4653-20.446-4.0026-22.729-4.5471-48.5-11.569-11.779-3.2093-45.023-13.716-50.958-16.106-3.32-1.33-10.32-3.92-15.54-5.75-52.4-18.33-96.24-47.46-124.67-82.84-3.1651-3.9386-6.4459-7.8662-7.2907-8.7279-0.84484-0.86177-4.8239-6.2618-8.8424-12-25.75-36.75-44.51-79.46-57.967-131.93-1.6223-6.325-3.4369-13.75-4.0323-16.5-0.59543-2.75-1.7652-7.925-2.5996-11.5-10.788-46.223-8.3935-107.89 6.3476-163.5 1.1663-4.4 2.7513-10.475 3.5222-13.5 1.4492-5.6865 10.747-33.205 13.009-38.5 0.70466-1.65 2.2883-5.475 3.5192-8.5 15.21-37.381 37.772-77.815 59.983-107.5 29.57-39.52 55.76-60.12 110.52-86.92 68.23-33.38 128-47.08 205.5-47.08 34.05 0 38.391 0.24888 62.5 3.5827 105.25 14.56 197.86 65.4 260.32 142.92 21.58 26.782 43.556 65.767 53.835 95.5 5.4782 15.847 8.1683 24.37 9.7845 31 0.93846 3.85 2.3389 9.25 3.1122 12 14.523 51.649 12.226 135.45-5.5171 201.31-5.3244 19.765-23.165 67.784-27.005 72.688-0.43072 0.55-1.125 2.125-1.5429 3.5-0.41789 1.375-3.928 8.35-7.8003 15.5s-8.0748 14.916-9.3391 17.259c-1.2642 2.3423-3.1572 5.4923-4.2066 7s-5.173 7.6913-9.1634 13.741c-19.979 30.29-51.503 64.724-76.043 83.059-2.988 2.2326-7.1819 5.3826-9.3198 7-27.575 20.862-70.245 42.138-102.11 50.915-2.75 0.75744-6.125 1.8064-7.5 2.3311-26.956 10.286-102.74 16.776-147 12.59zm54.5-19.429c15.369-1.2393 39.956-4.4834 50.5-6.6629 4.125-0.85271 8.625-1.774 10-2.0474 69.87-13.89 146.4-60.35 191.47-116.25 7.77-9.64 25.53-34.3 25.53-35.45 0-0.1889 1.8357-3.365 4.0793-7.0581 46.62-76.74 64.13-193.51 43.79-291.99-4.73-22.86-12.31-41.6-28.92-71.5-114.83-206.59-369.79-262.3-571.13-124.79-47.67 32.56-80.2 69.61-105.6 120.29-16.892 33.703-25.464 58.987-35.622 105.07-10.076 45.708-9.2554 115.81 1.9197 163.93 0.89394 3.85 2.2327 9.7 2.975 13 1.5264 6.7858 11.444 37.372 13.807 42.582 0.85268 1.8798 2.9942 6.7928 4.7589 10.918 8.9588 20.941 22.182 44.029 34.365 60 5.7676 7.5613 17.718 21.303 21.909 25.192 1.5953 1.4806 7.0113 6.5568 12.035 11.281 74.062 69.633 209.15 112.77 324.13 103.49zm-22.778-36.578c-0.18213-0.18214-7.3894-0.38062-16.016-0.44108-20.931-0.14668-19.185 1.8291-21.158-23.947-0.86292-11.275-2.289-28.825-3.1691-39-0.88007-10.175-1.6628-22.55-1.7394-27.5l-0.13933-9 10 0.0427c10.379 0.0443 36.79 1.9653 42.374 3.0821 5.185 1.037 4.6184-3.1805 8.1101 60.375 1.5177 27.625 1.5455 33.871 0.15694 35.26-1.093 1.0937-17.452 2.0957-18.419 1.1283zm-6.2472-19.746c1.8592-1.3595 1.32-21.996-1.3364-51.142l-0.63798-7-4.0517-0.29781c-6.2036-0.45597-7.3459 1.4813-6.367 10.798 0.43339 4.125 1.0576 14.7 1.3871 23.5 0.71721 19.153 1.237 23.693 2.8287 24.705 1.906 1.2115 6.1507 0.91962 8.1774-0.56233zm-31.97-242.8c-29.045-5.4988-46.221-33.729-37.96-62.391 0.63704-2.2101-2.2778-5.8513-26.04-32.529-6.6-7.4098-16.95-19.271-23-26.359-6.05-7.0877-15.5-17.907-21-24.043s-13.455-15.173-17.677-20.082c-14.625-17.003-14.039-16.691-16.31-8.6757-13.196 46.561-16.193 50.658-22.381 30.592-3.7061-12.018-5.5467-17.851-10.52-33.342-1.8542-5.775-4.821-15.225-6.593-21-1.7719-5.775-4.4688-14.325-5.9929-19-1.5242-4.675-4.2022-13.225-5.9511-19s-3.7825-12.075-4.5191-14c-0.73658-1.925-3.0193-9.125-5.0726-16-2.0534-6.875-4.8275-15.806-6.1648-19.846-4.7989-14.499-3.5066-14.646 31.683-3.6084 4.125 1.2939 15.6 4.6185 25.5 7.388 18.961 5.3043 24.907 6.9992 35.5 10.12 3.575 1.0533 14.6 4.179 24.5 6.9461 16.941 4.7351 28.099 7.9588 35 10.113 1.65 0.51492 6.15 1.7247 10 2.6884 5.6371 1.4111 7 2.1272 7 3.6782 0 2.2334 1.1519 1.7768-37 14.666-24.319 8.2159-30.093 10.775-29.263 12.971 0.14491 0.38338 3.9127 4.6766 8.3729 9.5404 7.3599 8.026 19.791 22.173 43.391 49.381 11.686 13.473 31.137 35.724 34.933 39.963 1.724 1.925 5.7551 6.425 8.958 10 3.2028 3.575 7.1252 7.9789 8.7162 9.7865l2.8929 3.2865 8.5729-0.67037c10.526-0.82314 9.6112-0.12899 20.968-15.903 5.1479-7.15 10.732-14.82 12.409-17.044 3.2416-4.2985 8.9696-12.155 31.792-43.604 7.8419-10.806 18.783-25.881 24.313-33.5 5.5303-7.6189 11.149-15.421 12.486-17.339 1.3372-1.9176 3.2526-4.3077 4.2563-5.3115 1.0038-1.0038 1.6801-2.5848 1.5029-3.5135-0.36793-1.9288 1.2225-1.8222-44.486-2.9837-37.621-0.95608-37.058 0.29552-7.8149-17.37 20.749-12.534 57.883-34.859 63.577-38.222 8.9898-5.3092 34.678-20.706 46.923-28.124 59.999-36.349 60.054-36.373 57.204-24.677-0.62822 2.5788-1.6031 8.0637-2.1664 12.189-0.98557 7.2174-2.3036 15.463-6.9538 43.5-8.3594 50.402-10.421 62.996-13.094 80-1.124 7.15-2.4508 15.25-2.9483 18-0.49756 2.75-1.1911 7.25-1.5412 10-0.35009 2.75-1.0206 6.575-1.4901 8.5-0.46948 1.925-1.3692 6.65-1.9994 10.5-2.1644 13.222-1.9424 12.646-4.7389 12.308-2.2423-0.27114-4.1413-3.4441-16.044-26.808-16.06-31.523-12.688-30.681-30.861-7.7003-8.1769 10.34-19.039 24.065-24.138 30.5-5.0989 6.4352-11.065 14.049-13.259 16.92-2.1935 2.8706-4.8043 6.0206-5.8017 7-0.99743 0.97938-2.8793 3.3557-4.182 5.2807-1.3026 1.925-4.8701 6.4638-7.9276 10.086-3.0575 3.6224-8.4842 10.358-12.059 14.968-3.575 4.6098-8.4679 10.82-10.873 13.801-2.4052 2.9807-5.4073 6.9432-6.6712 8.8057l-2.298 3.3863 2.9014 8.2266c13.528 38.357-23.308 75.745-66.559 67.556zm21.996-29.914c22.786-8.5254 23.21-41.694 0.63139-49.388-17.108-5.8291-34.79 6.0353-35.953 24.123-1.2761 19.852 16.261 32.396 35.321 25.264zm-43.94-55.67c6.453-5.6591 6.4867-5.8787 1.6917-11.036-2.0625-2.2185-4.6196-5.0866-5.6824-6.3736s-5.7878-6.8036-10.5-12.259c-4.71-5.45-13.29-15.39-19.07-22.09-5.78-6.69-17.7-20.38-26.5-30.41-8.8-10.04-17.58-20.17-19.5-22.53-3.8778-4.7386-20.131-23.543-28.871-33.403-6.9359-7.8245-7.9582-9.7791-6.0506-11.569 1.4448-1.356 20.128-8.8596 25.198-10.12 4.6901-1.1662 5.8235-5.4603 1.4412-5.4603-1.072 0-4.0345-0.68936-6.5833-1.5319-5.92-1.96-33.93-10.19-41.13-12.09-3.025-0.79703-9.6366-2.7846-14.693-4.4168-13.425-4.3341-15.384-4.0331-12.4 1.9062 1.002 1.9944 2.3641 5.4262 3.0268 7.6262 0.66274 2.2 1.616 4.9 2.1182 6 1.2991 2.845 6.0813 16.461 12.189 34.707 5.9704 17.834 6.2851 18.182 11.468 12.668 7.7766-8.2733 7.8017-8.2618 25.88 11.92 8.2005 9.1546 17.385 19.384 20.41 22.733 3.025 3.3482 8.425 9.404 12 13.457 3.575 4.0532 7.625 8.5738 9 10.046 1.375 1.4719 5.4164 6.0048 8.9809 10.073 3.5645 4.0684 6.7363 7.622 7.0486 7.897 1.0943 0.96378 12.528 13.643 18.471 20.483 3.3 3.7982 7.1466 8.0559 8.5481 9.4616 1.4014 1.4057 5.451 5.9308 8.9989 10.056 9.225 10.725 7.6526 10.265 14.511 4.25zm85.153-19.501c6.4835-8.3883 13.813-17.871 16.288-21.072 2.475-3.2015 8.55-11.118 13.5-17.592 4.95-6.4743 15.764-20.504 24.031-31.178 8.2668-10.673 15.917-20.593 17-22.044 31.392-42.054 33.072-43.473 39.188-33.114 1.5298 2.5912 3.2314 5.4683 3.7814 6.3936s2.7287 4.9845 4.8416 9.0204c6.7552 12.903 7.7335 12.836 9.5593-0.66203 1.2942-9.5676 1.7992-12.789 5.0946-32.5 1.1494-6.875 2.4806-14.975 2.9583-18 4.1214-26.1 7.194-44.068 8.0334-46.977 2.3938-8.2948 0.94406-8.4278-10.987-1.0078-5.225 3.2494-12.425 7.5496-16 9.5562-3.575 2.0065-19.55 11.412-35.5 20.901-15.95 9.4892-31.812 18.751-35.25 20.582-12.403 6.6055-11.357 6.7406 30.456 3.9295 14.19-0.95 17.3-0.72 17.3 1.3 0 1.5817-10.916 17.3-19.944 28.716-1.0873 1.375-6.9399 9.25-13.006 17.5-6.0659 8.25-16.52 22.425-23.231 31.5-6.7112 9.075-16.001 21.675-20.643 28-13.569 18.487-16.847 22.929-24.724 33.5-15.36 20.614-15.837 21.417-13.966 23.486 1.5694 1.7341 7.1766 4.9421 8.7248 4.9916 0.39149 0.0125 6.0165-6.8404 12.5-15.229zm-385.04 81.437c-1.6213-1.7916-1.634-2.6584-0.19966-13.601 0.84262-6.4279 1.5346-13.127 1.5376-14.886 0.0219-12.547-5.4467-11.482 73.517-14.312l19.022-0.68182 0.9839 2.3976c1.5482 3.7728 1.2637 39.49-0.32737 41.091-2.4347 2.4497-92.316 2.4423-94.533-0.008zm77.148-13.463c0.58322-0.70274 1.2008-3.7402 1.3724-6.75l0.31-5.48h-28.5-28.5l-0.3068 5.3808c-0.16873 2.9594-0.0704 5.9969 0.21862 6.75 0.7444 1.9399 53.797 2.0275 55.404 0.0915zm511.87-7.8207c-1.5026-0.88736-1.7195-1.9505-1.2724-6.2357 0.29651-2.8413 1.0219-10.116 1.612-16.166 0.59008-6.05 1.4983-12.621 2.0183-14.602l0.94541-3.6025 10.254-0.63922c5.6397-0.35157 22.854-1.0854 38.254-1.6306 15.4-0.54527 30.945-1.2186 34.545-1.4962 11.08-0.87 10.95-1.12 10.95 21.83 0 15.045-0.31007 19.676-1.4188 21.193-1.6732 2.2892-92.145 3.556-95.893 1.3427zm74.91-14.667c1.5706-1.0503 2.6879-11.94 1.3123-12.79-1.7579-1.0864-56.18-0.46666-57.532 0.6552-1.4332 1.1894-1.5252 9.8781-0.12344 11.65 1.1022 1.3932 54.3 1.8508 56.343 0.48469zm-349.29-243.49c-0.56364-1.2375-2.4745-9.9-4.2463-19.25s-3.8501-19.925-4.6184-23.5c-2.67-12.41-9.45-47.78-9.45-49.28 0-2.1922 3.25-2.7114 20.258-3.236 8.3832-0.25859 19.386-0.72493 24.451-1.0363 13.593-0.83568 13.49-0.93524 15.887 15.434 0.85475 5.8379 1.9175 13.089 2.3617 16.114 0.44417 3.025 1.4875 9.325 2.3186 14 0.83106 4.675 2.4848 15.025 3.675 23s2.618 15.964 3.1728 17.754c2.3571 7.6032 0.48866 8.3996-25.124 10.708-24.261 2.1871-27.402 2.1091-28.687-0.71242zm27.109-21.844c0.84-0.78-3.85-37.83-6.54-51.66-1.19-6.14-11.88-7.81-11.88-1.85 0 0.13952 0.87499 5.1699 1.9444 11.179 1.0694 6.0087 2.2439 13.85 2.6099 17.425 1.443 14.094 3.4613 25.393 4.6727 26.16 1.4369 0.91056 7.7882 0.0443 9.1954-1.2541zm-345.28-67.75c18.46-15.45 35.21-27.55 61.86-44.69 23.132-14.872 69.52-37.731 98.5-48.539 21.831-8.1415 55.447-18.601 70.5-21.936 11.681-2.588 35.529-7.2181 41.49-8.0554 12.57-1.77 12.38-1.31 6.19-14.94-22.49-49.535-62.56-61.583-135.68-40.795-35.069 9.9709-65.478 21.425-88.774 33.44-6.7507 3.4816-13.501 7.175-15 8.2076-1.4993 1.0326-5.201 3.4757-8.226 5.429-51.945 33.542-71.505 83.567-49.732 127.19 7.6059 15.239 6.578 14.984 18.873 4.6883zm679.54-19.41c20.09-31.6 10.32-76.6-24.18-111.33-29.78-29.99-70.88-52.502-111.44-61.051-51.44-10.842-94.02 6.046-123.37 48.935-10.063 14.704-9.9245 15.077 5.9741 16.029 70.59 4.2273 153.6 36.001 221.38 84.741 11.543 8.3003 13.548 9.9029 21.484 17.175 7.6133 6.9762 8.7999 7.6194 10.148 5.5z"/>
</svg>